<?xml version="1.0" encoding="utf-8"?>
<!-- Generator: Adobe Illustrator 22.0.1, SVG Export Plug-In . SVG Version: 6.00 Build 0)  -->
<svg version="1.1"
	 id="Calque_1" xmlns:cc="http://creativecommons.org/ns#" xmlns:dc="http://purl.org/dc/elements/1.1/" xmlns:inkscape="http://www.inkscape.org/namespaces/inkscape" xmlns:rdf="http://www.w3.org/1999/02/22-rdf-syntax-ns#" xmlns:sodipodi="http://sodipodi.sourceforge.net/DTD/sodipodi-0.dtd" xmlns:svg="http://www.w3.org/2000/svg"
	 xmlns="http://www.w3.org/2000/svg" xmlns:xlink="http://www.w3.org/1999/xlink" x="0px" y="0px" viewBox="0 0 100 77"
	 style="enable-background:new 0 0 100 77;" xml:space="preserve">
<style type="text/css">
	.st0{fill:#FFFFFF;}
	.st1{fill:#FF0000;}
</style>
<g transform="translate(0,-952.36218)">
	<path class="st0" d="M35,960.4l9,26.9l-24,0.9l-5-6.9H8l3,10.4L8,1002h7l5-6.9l24,0.9l-9,26.9h9l19-26.1l20,0.9c3.9,0,9-2.8,9-6.1
		s-5.1-6.1-9-6.1l-20,0.9l-19-26.1H35z"/>
</g>
<g>
	<path class="st0" d="M237.6,40.1h4.2v9h3v-4.2h4.2v-11h3v11h5.6V50h-2.2v7.9h62.2l-9.1,14.3h-68.4c-5,0-9.1-4.1-9.1-9.1V58h6.6
		V40.1L237.6,40.1z"/>
	<polygon class="st1" points="265.9,42.1 276.6,42.1 276.6,47.8 265.9,47.8 	"/>
	<polygon class="st1" points="278.6,42.1 289.3,42.1 289.3,47.8 278.6,47.8 	"/>
	<polygon class="st1" points="291.3,42.1 302,42.1 302,47.8 291.3,47.8 	"/>
	<polygon class="st1" points="265.9,50.2 276.6,50.2 276.6,55.9 265.9,55.9 	"/>
	<polygon class="st1" points="278.6,50.2 289.3,50.2 289.3,55.9 278.6,55.9 	"/>
	<polygon class="st1" points="291.3,50.2 302,50.2 302,55.9 291.3,55.9 	"/>
</g>
<g>
	<g id="Calque_2_2_">
	</g>
	<g id="Calque_1_2_">
		<path class="st0" d="M-103.2,48.4c0.8,0,1.4,0.6,1.4,1.4s-0.6,1.4-1.4,1.4c-0.8,0-1.4-0.6-1.4-1.4
			C-104.6,49.1-104,48.4-103.2,48.4 M-103.2,46.9c-1.6,0-2.9,1.3-2.9,2.9c0,1.6,1.3,2.9,2.9,2.9c1.6,0,2.9-1.3,2.9-2.9
			S-101.6,46.9-103.2,46.9L-103.2,46.9z"/>
		<path class="st0" d="M-97.4,48.4c0.8,0,1.4,0.6,1.4,1.4s-0.6,1.4-1.4,1.4c-0.8,0-1.4-0.6-1.4-1.4C-98.8,49.1-98.2,48.4-97.4,48.4
			 M-97.4,46.9c-1.6,0-2.9,1.3-2.9,2.9c0,1.6,1.3,2.9,2.9,2.9c1.6,0,2.9-1.3,2.9-2.9C-94.5,48.2-95.8,46.9-97.4,46.9L-97.4,46.9z"/>
		<path class="st1" d="M-114.1,27.9h66.2v14.2c0,0.7-0.6,1.3-1.3,1.3h-63.7c-0.7,0-1.3-0.6-1.3-1.3L-114.1,27.9L-114.1,27.9z"/>
		<path class="st0" d="M-47.9,44.5h-66.3v1.7h5.6v2.1h1.9c0.1-0.8,0.4-1.5,0.9-2.1H-68l3,2.6c0.3,0.3,0.7,0.4,1.1,0.4
			c0.6,0,1.2-0.4,1.4-0.9l0.9-2.1h13.7L-47.9,44.5L-47.9,44.5z"/>
		<path class="st0" d="M-36.5,49.5c0,0.5-0.4,1-1,1h-10.3c-0.5,0-1-0.4-1-1v-1.6h12.3C-36.5,48-36.5,49.5-36.5,49.5z"/>
		<path class="st0" d="M-52.8,48.4c0.8,0,1.4,0.6,1.4,1.4s-0.6,1.4-1.4,1.4s-1.4-0.6-1.4-1.4C-54.2,49.1-53.6,48.4-52.8,48.4
			 M-52.8,46.9c-1.6,0-2.9,1.3-2.9,2.9c0,1.6,1.3,2.9,2.9,2.9s2.9-1.3,2.9-2.9S-51.2,46.9-52.8,46.9L-52.8,46.9z"/>
		<path class="st0" d="M-58.5,48.4c0.8,0,1.4,0.6,1.4,1.4s-0.6,1.4-1.4,1.4s-1.4-0.6-1.4-1.4C-59.9,49.1-59.2,48.4-58.5,48.4
			 M-58.5,46.9c-1.6,0-2.9,1.3-2.9,2.9c0,1.6,1.3,2.9,2.9,2.9c1.6,0,2.9-1.3,2.9-2.9C-55.6,48.2-56.9,46.9-58.5,46.9L-58.5,46.9z"/>
		<path class="st0" d="M-30.6,48.4c0.8,0,1.4,0.6,1.4,1.4s-0.6,1.4-1.4,1.4s-1.4-0.6-1.4-1.4S-31.4,48.4-30.6,48.4 M-30.6,46.9
			c-1.6,0-2.9,1.3-2.9,2.9c0,1.6,1.3,2.9,2.9,2.9c1.6,0,2.9-1.3,2.9-2.9S-29,46.9-30.6,46.9L-30.6,46.9z"/>
		<path class="st0" d="M-24.2,46.9c0-0.6-1-5.2-1-5.2c-0.1-0.7-7-1.8-7-1.8l-1.4-4.1h1l-0.1-0.3c-0.2-0.4-0.5-0.8-1-0.9
			c-0.2,0-0.3-0.1-0.3-0.1s-0.2-0.7-0.5-1.3c-0.1-0.2-0.3-0.4-0.5-0.6c-2.6-1.7-7.6-2.4-8.1-2.3h-0.7c-0.2,0-0.4,0.2-0.4,0.4
			l-0.1,1.1c-0.2,1.4-0.2,1.4-0.2,2.8V47h9.3v2.9h0.7h0.2h0.2c0-2.3,1.4-3.9,3.5-3.9c2,0,3.5,1.6,3.5,3.9v0.2h0.2h0.3h0.7
			c1,0,1.8-0.9,1.8-1.8C-24.1,47.4-24.2,47.6-24.2,46.9z M-40.1,43.3c0,0.1-0.1,0.2-0.2,0.2s-0.2-0.1-0.2-0.2v-4.6
			c0-0.1,0.1-0.2,0.2-0.2s0.2,0.1,0.2,0.2V43.3z M-38.5,39.1c-0.3,0-0.5-0.3-0.5-0.6l-0.2-2.7h4.4l1.4,4L-38.5,39.1z M-25.3,46.9
			H-26c-0.4,0-0.8-0.1-1.1-0.3L-28,46h2.1c0.3,0,0.6,0.3,0.6,0.6C-25.3,46.5-25.3,46.9-25.3,46.9z"/>
	</g>
</g>
</svg>
