<?xml version="1.0" encoding="utf-8"?>
<!-- Generator: Adobe Illustrator 22.0.1, SVG Export Plug-In . SVG Version: 6.00 Build 0)  -->
<svg version="1.1"
	 id="Calque_1" xmlns:cc="http://creativecommons.org/ns#" xmlns:dc="http://purl.org/dc/elements/1.1/" xmlns:inkscape="http://www.inkscape.org/namespaces/inkscape" xmlns:rdf="http://www.w3.org/1999/02/22-rdf-syntax-ns#" xmlns:sodipodi="http://sodipodi.sourceforge.net/DTD/sodipodi-0.dtd" xmlns:svg="http://www.w3.org/2000/svg"
	 xmlns="http://www.w3.org/2000/svg" xmlns:xlink="http://www.w3.org/1999/xlink" x="0px" y="0px" viewBox="0 0 100 77"
	 style="enable-background:new 0 0 100 77;" xml:space="preserve">
<style type="text/css">
	.st0{fill:#FFFFFF;}
	.st1{fill:#FF0000;}
</style>
<g transform="translate(0,-952.36218)">
	<path class="st0" d="M27,1124.4l9,26.9l-24,0.9l-5-6.9H0l3,10.4L0,1166h7l5-6.9l24,0.9l-9,26.9h9l19-26.1l20,0.9c3.9,0,9-2.8,9-6.1
		c0-3.2-5.1-6.1-9-6.1l-20,0.9l-19-26.1H27z"/>
</g>
<g>
	<path class="st0" d="M19,20.9h4.2v9h3v-4.2h4.2v-11h3v11H39v5.1h-2.2v7.9H99L89.9,53H21.5c-5,0-9.1-4.1-9.1-9.1v-5.1H19V20.9
		L19,20.9z"/>
	<polygon class="st1" points="47.3,22.9 58,22.9 58,28.6 47.3,28.6 	"/>
	<polygon class="st1" points="60,22.9 70.7,22.9 70.7,28.6 60,28.6 	"/>
	<polygon class="st1" points="72.7,22.9 83.4,22.9 83.4,28.6 72.7,28.6 	"/>
	<polygon class="st1" points="47.3,31 58,31 58,36.7 47.3,36.7 	"/>
	<polygon class="st1" points="60,31 70.7,31 70.7,36.7 60,36.7 	"/>
	<polygon class="st1" points="72.7,31 83.4,31 83.4,36.7 72.7,36.7 	"/>
</g>
<g>
	<g id="Calque_2_2_">
	</g>
	<g id="Calque_1_2_">
		<path class="st0" d="M11-59.2c0.8,0,1.4,0.6,1.4,1.4s-0.6,1.4-1.4,1.4c-0.8,0-1.4-0.6-1.4-1.4C9.6-58.5,10.2-59.2,11-59.2
			 M11-60.7c-1.6,0-2.9,1.3-2.9,2.9s1.3,2.9,2.9,2.9s2.9-1.3,2.9-2.9C13.9-59.4,12.6-60.7,11-60.7L11-60.7z"/>
		<path class="st0" d="M16.8-59.2c0.8,0,1.4,0.6,1.4,1.4s-0.6,1.4-1.4,1.4s-1.4-0.6-1.4-1.4C15.4-58.5,16-59.2,16.8-59.2 M16.8-60.7
			c-1.6,0-2.9,1.3-2.9,2.9s1.3,2.9,2.9,2.9s2.9-1.3,2.9-2.9C19.7-59.4,18.4-60.7,16.8-60.7L16.8-60.7z"/>
		<path class="st1" d="M0.1-79.7h66.2v14.2c0,0.7-0.6,1.3-1.3,1.3H1.3c-0.7,0-1.3-0.6-1.3-1.3L0.1-79.7L0.1-79.7z"/>
		<path class="st0" d="M66.3-63.1H0v1.7h5.6v2.1h1.9c0.1-0.8,0.4-1.5,0.9-2.1h37.8l3,2.6c0.3,0.3,0.7,0.4,1.1,0.4
			c0.6,0,1.2-0.4,1.4-0.9l0.9-2.1h13.7L66.3-63.1L66.3-63.1z"/>
		<path class="st0" d="M77.7-58.1c0,0.5-0.4,1-1,1H66.4c-0.5,0-1-0.4-1-1v-1.6h12.3C77.7-59.6,77.7-58.1,77.7-58.1z"/>
		<path class="st0" d="M61.4-59.2c0.8,0,1.4,0.6,1.4,1.4s-0.6,1.4-1.4,1.4S60-57,60-57.8C60-58.5,60.6-59.2,61.4-59.2 M61.4-60.7
			c-1.6,0-2.9,1.3-2.9,2.9s1.3,2.9,2.9,2.9s2.9-1.3,2.9-2.9C64.3-59.4,63-60.7,61.4-60.7L61.4-60.7z"/>
		<path class="st0" d="M55.7-59.2c0.8,0,1.4,0.6,1.4,1.4s-0.6,1.4-1.4,1.4c-0.8,0-1.4-0.6-1.4-1.4C54.3-58.5,55-59.2,55.7-59.2
			 M55.7-60.7c-1.6,0-2.9,1.3-2.9,2.9s1.3,2.9,2.9,2.9c1.6,0,2.9-1.3,2.9-2.9C58.6-59.4,57.3-60.7,55.7-60.7L55.7-60.7z"/>
		<path class="st0" d="M83.6-59.2c0.8,0,1.4,0.6,1.4,1.4s-0.6,1.4-1.4,1.4s-1.4-0.6-1.4-1.4S82.8-59.2,83.6-59.2 M83.6-60.7
			c-1.6,0-2.9,1.3-2.9,2.9s1.3,2.9,2.9,2.9c1.6,0,2.9-1.3,2.9-2.9C86.5-59.4,85.2-60.7,83.6-60.7L83.6-60.7z"/>
		<path class="st0" d="M90-60.7c0-0.6-1-5.2-1-5.2c-0.1-0.7-7-1.8-7-1.8l-1.4-4.1h1l-0.1-0.3c-0.2-0.4-0.5-0.8-1-0.9
			c-0.2,0-0.3-0.1-0.3-0.1s-0.2-0.7-0.5-1.3c-0.1-0.2-0.3-0.4-0.5-0.6c-2.6-1.7-7.6-2.4-8.1-2.3h-0.7c-0.2,0-0.4,0.2-0.4,0.4
			l-0.1,1.1c-0.2,1.4-0.2,1.4-0.2,2.8v12.4H79v2.9h0.7h0.2h0.2c0-2.3,1.4-3.9,3.5-3.9c2,0,3.5,1.6,3.5,3.9v0.2h0.2h0.3h0.7
			c1,0,1.8-0.9,1.8-1.8C90.1-60.2,90-60,90-60.7z M74.1-64.3c0,0.1-0.1,0.2-0.2,0.2c-0.1,0-0.2-0.1-0.2-0.2v-4.6
			c0-0.1,0.1-0.2,0.2-0.2c0.1,0,0.2,0.1,0.2,0.2V-64.3z M75.7-68.5c-0.3,0-0.5-0.3-0.5-0.6L75-71.8h4.4l1.4,4L75.7-68.5z M88.9-60.7
			h-0.7c-0.4,0-0.8-0.1-1.1-0.3l-0.9-0.6h2.1c0.3,0,0.6,0.3,0.6,0.6C88.9-61.1,88.9-60.7,88.9-60.7z"/>
	</g>
</g>
</svg>
