<?xml version="1.0" encoding="utf-8"?>
<!-- Generator: Adobe Illustrator 22.0.1, SVG Export Plug-In . SVG Version: 6.00 Build 0)  -->
<svg version="1.1"
	 id="Calque_1" xmlns:cc="http://creativecommons.org/ns#" xmlns:dc="http://purl.org/dc/elements/1.1/" xmlns:inkscape="http://www.inkscape.org/namespaces/inkscape" xmlns:rdf="http://www.w3.org/1999/02/22-rdf-syntax-ns#" xmlns:sodipodi="http://sodipodi.sourceforge.net/DTD/sodipodi-0.dtd" xmlns:svg="http://www.w3.org/2000/svg"
	 xmlns="http://www.w3.org/2000/svg" xmlns:xlink="http://www.w3.org/1999/xlink" x="0px" y="0px" viewBox="0 0 100 77"
	 style="enable-background:new 0 0 100 77;" xml:space="preserve">
<style type="text/css">
	.st0{fill:#FFFFFF;}
	.st1{fill:#FF0000;}
</style>
<g transform="translate(0,-952.36218)">
	<path class="st0" d="M27,1124.4l9,26.9l-24,0.9l-5-6.9H0l3,10.4L0,1166h7l5-6.9l24,0.9l-9,26.9h9l19-26.1l20,0.9c3.9,0,9-2.8,9-6.1
		c0-3.2-5.1-6.1-9-6.1l-20,0.9l-19-26.1H27z"/>
</g>
<g>
	<path class="st0" d="M237.6,40.1h4.2v9h3v-4.2h4.2v-11h3v11h5.6V50h-2.2v7.9h62.2l-9.1,14.3h-68.4c-5,0-9.1-4.1-9.1-9.1V58h6.6
		V40.1L237.6,40.1z"/>
	<polygon class="st1" points="265.9,42.1 276.6,42.1 276.6,47.8 265.9,47.8 	"/>
	<polygon class="st1" points="278.6,42.1 289.3,42.1 289.3,47.8 278.6,47.8 	"/>
	<polygon class="st1" points="291.3,42.1 302,42.1 302,47.8 291.3,47.8 	"/>
	<polygon class="st1" points="265.9,50.2 276.6,50.2 276.6,55.9 265.9,55.9 	"/>
	<polygon class="st1" points="278.6,50.2 289.3,50.2 289.3,55.9 278.6,55.9 	"/>
	<polygon class="st1" points="291.3,50.2 302,50.2 302,55.9 291.3,55.9 	"/>
</g>
<g>
	<g id="Calque_2_2_">
	</g>
	<g id="Calque_1_2_">
		<path class="st0" d="M16.5,46.6c0.8,0,1.4,0.6,1.4,1.4s-0.6,1.4-1.4,1.4c-0.8,0-1.4-0.6-1.4-1.4C15.1,47.3,15.7,46.6,16.5,46.6
			 M16.5,45.1c-1.6,0-2.9,1.3-2.9,2.9c0,1.6,1.3,2.9,2.9,2.9s2.9-1.3,2.9-2.9S18.1,45.1,16.5,45.1L16.5,45.1z"/>
		<path class="st0" d="M22.3,46.6c0.8,0,1.4,0.6,1.4,1.4s-0.6,1.4-1.4,1.4s-1.4-0.6-1.4-1.4C20.9,47.3,21.5,46.6,22.3,46.6
			 M22.3,45.1c-1.6,0-2.9,1.3-2.9,2.9c0,1.6,1.3,2.9,2.9,2.9s2.9-1.3,2.9-2.9C25.2,46.4,23.9,45.1,22.3,45.1L22.3,45.1z"/>
		<path class="st1" d="M5.6,26.1h66.2v14.2c0,0.7-0.6,1.3-1.3,1.3H6.8c-0.7,0-1.3-0.6-1.3-1.3L5.6,26.1L5.6,26.1z"/>
		<path class="st0" d="M71.8,42.7H5.5v1.7h5.6v2.1H13c0.1-0.8,0.4-1.5,0.9-2.1h37.8l3,2.6c0.3,0.3,0.7,0.4,1.1,0.4
			c0.6,0,1.2-0.4,1.4-0.9l0.9-2.1h13.7L71.8,42.7L71.8,42.7z"/>
		<path class="st0" d="M83.2,47.7c0,0.5-0.4,1-1,1H71.9c-0.5,0-1-0.4-1-1v-1.6h12.3C83.2,46.2,83.2,47.7,83.2,47.7z"/>
		<path class="st0" d="M66.9,46.6c0.8,0,1.4,0.6,1.4,1.4s-0.6,1.4-1.4,1.4s-1.4-0.6-1.4-1.4C65.5,47.3,66.1,46.6,66.9,46.6
			 M66.9,45.1c-1.6,0-2.9,1.3-2.9,2.9c0,1.6,1.3,2.9,2.9,2.9s2.9-1.3,2.9-2.9S68.5,45.1,66.9,45.1L66.9,45.1z"/>
		<path class="st0" d="M61.2,46.6c0.8,0,1.4,0.6,1.4,1.4s-0.6,1.4-1.4,1.4c-0.8,0-1.4-0.6-1.4-1.4C59.8,47.3,60.5,46.6,61.2,46.6
			 M61.2,45.1c-1.6,0-2.9,1.3-2.9,2.9c0,1.6,1.3,2.9,2.9,2.9c1.6,0,2.9-1.3,2.9-2.9S62.8,45.1,61.2,45.1L61.2,45.1z"/>
		<path class="st0" d="M89.1,46.6c0.8,0,1.4,0.6,1.4,1.4s-0.6,1.4-1.4,1.4s-1.4-0.6-1.4-1.4S88.3,46.6,89.1,46.6 M89.1,45.1
			c-1.6,0-2.9,1.3-2.9,2.9c0,1.6,1.3,2.9,2.9,2.9S92,49.6,92,48S90.7,45.1,89.1,45.1L89.1,45.1z"/>
		<path class="st0" d="M95.5,45.1c0-0.6-1-5.2-1-5.2c-0.1-0.7-7-1.8-7-1.8L86.1,34h1L87,33.7c-0.2-0.4-0.5-0.8-1-0.9
			c-0.2,0-0.3-0.1-0.3-0.1s-0.2-0.7-0.5-1.3c-0.1-0.2-0.3-0.4-0.5-0.6c-2.6-1.7-7.6-2.4-8.1-2.3h-0.7c-0.2,0-0.4,0.2-0.4,0.4
			L75.4,30c-0.2,1.4-0.2,1.4-0.2,2.8v12.4h9.3v2.9h0.7h0.2h0.2c0-2.3,1.4-3.9,3.5-3.9c2,0,3.5,1.6,3.5,3.9v0.2h0.2H93h0.7
			c1,0,1.8-0.9,1.8-1.8C95.5,45.6,95.5,45.8,95.5,45.1z M79.6,41.5c0,0.1-0.1,0.2-0.2,0.2s-0.2-0.1-0.2-0.2v-4.6
			c0-0.1,0.1-0.2,0.2-0.2s0.2,0.1,0.2,0.2V41.5z M81.2,37.3c-0.3,0-0.5-0.3-0.5-0.6L80.5,34h4.4l1.4,4L81.2,37.3z M94.4,45.1h-0.7
			c-0.4,0-0.8-0.1-1.1-0.3l-0.9-0.6h2.1c0.3,0,0.6,0.3,0.6,0.6C94.4,44.7,94.4,45.1,94.4,45.1z"/>
	</g>
</g>
</svg>
